<?xml version="1.0" encoding="UTF-8" standalone="no"?>
<!DOCTYPE svg PUBLIC "-//W3C//DTD SVG 1.1//EN" "http://www.w3.org/Graphics/SVG/1.1/DTD/svg11.dtd">
<svg width="100%" height="100%" viewBox="0 0 1624 949" version="1.1" xmlns="http://www.w3.org/2000/svg" xmlns:xlink="http://www.w3.org/1999/xlink" xml:space="preserve" xmlns:serif="http://www.serif.com/" style="fill-rule:evenodd;clip-rule:evenodd;stroke-linejoin:round;stroke-miterlimit:2;">
    <g transform="matrix(1,0,0,1,-8341.09,-16324.6)">
        <g transform="matrix(1,0,0,1,8168.76,13616.2)">
            <g transform="matrix(0.999121,-0.0419264,0.0419264,0.999121,-532.845,2426.56)">
                <path d="M848.865,1227.32L847.211,1266.73L807.8,1265.08L809.454,1225.67L848.865,1227.32ZM853.784,1110.09L814.374,1108.43L816.028,1069.02L855.438,1070.68L853.784,1110.09ZM853.784,1110.09L893.195,1111.74L894.849,1072.33L973.098,1075.61L973.106,1075.41C973.106,1075.41 1034.07,1036.47 1056.7,1014.49C1070.72,1000.87 1076.35,990.847 1073.59,984.434C1069,973.746 1035.63,973.425 973.501,983.471C911.131,993.619 865.337,991.467 836.12,977.015C806.902,962.563 786.854,942.69 775.976,917.395C746.622,849.14 808.746,753.37 981.905,622.263C984.125,620.582 984.685,617.48 983.191,615.13L930.621,532.425C930.077,531.567 929.894,530.528 930.114,529.536C930.212,529.105 930.381,528.705 930.667,528.467C931.554,527.729 933.755,528.385 933.755,528.385L1159.92,549.542C1159.92,549.542 1161.95,549.596 1162.58,550.397C1163.2,551.199 1162.77,553.182 1162.77,553.182L1132.67,791.95C1132.67,791.95 1133.07,794.186 1132.23,794.963C1131.73,795.427 1130.75,795.413 1130.03,795.327C1129.61,795.308 1129.22,795.103 1128.97,794.768C1124.95,789.555 1079.81,729.829 1068,714.209C1066.39,712.071 1063.44,711.459 1061.11,712.777C980.488,758.179 940.53,794.23 922.207,828.543C917.718,836.595 916.623,843.293 918.921,848.637C926.199,865.559 975.272,863.451 1066.14,842.312C1157.01,821.174 1215.39,840.708 1241.29,900.916C1267.03,960.768 1252.82,1014.9 1198.67,1063.3C1144.79,1111.34 1067.58,1159.91 968.072,1209.06L967.097,1232.28L927.686,1230.63L929.298,1192.22L889.888,1190.56L888.276,1228.97L848.865,1227.32L850.477,1188.91L811.066,1187.26L812.72,1147.84L852.131,1149.5L853.784,1110.09ZM696.148,1094.48L660.932,1093C660.38,1092.98 659.952,1092.51 659.975,1091.96L660.765,1073.12C660.789,1072.57 661.255,1072.14 661.806,1072.16L697.022,1073.64L698.5,1038.43C698.523,1037.88 698.989,1037.45 699.541,1037.47L718.376,1038.26C718.928,1038.28 719.356,1038.75 719.333,1039.3L717.855,1074.52L753.071,1076C753.623,1076.02 754.051,1076.48 754.028,1077.04L753.238,1095.87C753.214,1096.42 752.748,1096.85 752.197,1096.83L716.981,1095.35L715.503,1130.57C715.48,1131.12 715.014,1131.55 714.462,1131.52L695.627,1130.73C695.075,1130.71 694.647,1130.24 694.67,1129.69L696.148,1094.48ZM1217.07,401.698L1236.41,487.744L1320.54,514.224L1234.49,533.562L1208.01,617.686L1188.67,531.64L1104.55,505.16L1190.59,485.822L1217.07,401.698Z" style="fill:url(#_Linear1);"/>
            </g>
        </g>
        <g transform="matrix(1,0,0,1,8168.76,13616.2)">
            <g transform="matrix(0.999121,-0.0419264,0.0419264,0.999121,-532.845,2426.56)">
                <path d="M848.865,1227.32L847.211,1266.73L807.8,1265.08L809.454,1225.67L848.865,1227.32ZM853.784,1110.09L814.374,1108.43L816.028,1069.02L855.438,1070.68L853.784,1110.09ZM853.784,1110.09L893.195,1111.74L894.849,1072.33L973.098,1075.61L973.106,1075.41C973.106,1075.41 1034.07,1036.47 1056.7,1014.49C1070.72,1000.87 1076.35,990.847 1073.59,984.434C1069,973.746 1035.63,973.425 973.501,983.471C911.131,993.619 865.337,991.467 836.12,977.015C806.902,962.563 786.854,942.69 775.976,917.395C746.622,849.14 808.746,753.37 981.905,622.263C984.125,620.582 984.685,617.48 983.191,615.13L930.621,532.425C930.077,531.567 929.894,530.528 930.114,529.536C930.212,529.105 930.381,528.705 930.667,528.467C931.554,527.729 933.755,528.385 933.755,528.385L1159.92,549.542C1159.92,549.542 1161.95,549.596 1162.58,550.397C1163.2,551.199 1162.77,553.182 1162.77,553.182L1132.67,791.95C1132.67,791.95 1133.07,794.186 1132.23,794.963C1131.73,795.427 1130.75,795.413 1130.03,795.327C1129.61,795.308 1129.22,795.103 1128.97,794.768C1124.95,789.555 1079.81,729.829 1068,714.209C1066.39,712.071 1063.44,711.459 1061.11,712.777C980.488,758.179 940.53,794.23 922.207,828.543C917.718,836.595 916.623,843.293 918.921,848.637C926.199,865.559 975.272,863.451 1066.14,842.312C1157.01,821.174 1215.39,840.708 1241.29,900.916C1267.03,960.768 1252.82,1014.9 1198.67,1063.3C1144.79,1111.34 1067.58,1159.91 968.072,1209.06L967.097,1232.28L927.686,1230.63L929.298,1192.22L889.888,1190.56L888.276,1228.97L848.865,1227.32L850.477,1188.91L811.066,1187.26L812.72,1147.84L852.131,1149.5L853.784,1110.09ZM1217.07,401.698L1236.41,487.744L1320.54,514.224L1234.49,533.562L1208.01,617.686L1188.67,531.64L1104.55,505.16L1190.59,485.822L1217.07,401.698Z" style="fill:url(#_Linear2);"/>
            </g>
        </g>
        <g transform="matrix(1,0,0,1,8168.76,13616.2)">
            <g transform="matrix(1,0,0,1,-8210.19,-13639.2)">
                <path d="M8975.85,16404.7L8940.6,16404.7C8940.05,16404.7 8939.6,16404.2 8939.6,16403.7L8939.6,16384.8C8939.6,16384.3 8940.05,16383.8 8940.6,16383.8L8975.85,16383.8L8975.85,16348.6C8975.85,16348 8976.3,16347.6 8976.85,16347.6L8995.7,16347.6C8996.26,16347.6 8996.7,16348 8996.7,16348.6L8996.7,16383.8L9031.95,16383.8C9032.5,16383.8 9032.95,16384.3 9032.95,16384.8L9032.95,16403.7C9032.95,16404.2 9032.5,16404.7 9031.95,16404.7L8996.7,16404.7L8996.7,16439.9C8996.7,16440.5 8996.26,16440.9 8995.7,16440.9L8976.85,16440.9C8976.3,16440.9 8975.85,16440.5 8975.85,16439.9L8975.85,16404.7Z" style="fill:url(#_Linear3);"/>
            </g>
        </g>
        <g transform="matrix(1,0,0,1,8168.76,13616.2)">
            <g transform="matrix(1.20355,0,0,1.20355,-10025.3,-17130.3)">
                <path d="M9040.76,17161L9040.76,17139.8L9019.47,17139.8L9019.47,16949.2L9062.05,16949.2L9062.05,16991.5L9104.62,16991.5L9104.62,17033.9L9062.05,17033.9L9062.05,17118.6L9104.62,17118.6L9104.62,17161L9040.76,17161ZM9147.2,17161L9147.2,17139.8L9125.91,17139.8L9125.91,17076.3L9147.2,17076.3L9147.2,17055.1L9211.07,17055.1L9211.07,17033.9L9125.91,17033.9L9125.91,16991.5L9232.36,16991.5L9232.36,17012.7L9253.64,17012.7L9253.64,17161L9147.2,17161ZM9211.07,17118.6L9211.07,17097.4L9168.49,17097.4L9168.49,17118.6L9211.07,17118.6ZM9274.93,17161L9274.93,16991.5L9317.51,16991.5L9317.51,17012.7L9338.8,17012.7L9338.8,16991.5L9381.38,16991.5L9381.38,17033.9L9338.8,17033.9L9338.8,17055.1L9317.51,17055.1L9317.51,17161L9274.93,17161ZM9423.95,17161L9423.95,17139.8L9402.66,17139.8L9402.66,16949.2L9445.24,16949.2L9445.24,16991.5L9487.82,16991.5L9487.82,17033.9L9445.24,17033.9L9445.24,17118.6L9487.82,17118.6L9487.82,17161L9423.95,17161ZM9530.39,17161L9530.39,17139.8L9509.11,17139.8L9509.11,16991.5L9551.68,16991.5L9551.68,17118.6L9594.26,17118.6L9594.26,16991.5L9636.84,16991.5L9636.84,17161L9530.39,17161ZM9658.12,17203.3L9658.12,16991.5L9764.57,16991.5L9764.57,17012.7L9785.86,17012.7L9785.86,17139.8L9764.57,17139.8L9764.57,17161L9700.7,17161L9700.7,17203.3L9658.12,17203.3ZM9743.28,17118.6L9743.28,17033.9L9700.7,17033.9L9700.7,17118.6L9743.28,17118.6Z" style="fill:url(#_Linear4);"/>
            </g>
        </g>
        <g transform="matrix(1,0,0,1,8168.76,13616.2)">
            <g transform="matrix(1.20355,0,0,1.20355,-10027.5,-17029.5)">
                <path d="M8976.89,16822.1L8976.89,16800.9L8955.61,16800.9L8955.61,16610.3L8998.18,16610.3L8998.18,16652.7L9040.76,16652.7L9040.76,16695L8998.18,16695L8998.18,16779.8L9040.76,16779.8L9040.76,16822.1L8976.89,16822.1ZM9083.34,16822.1L9083.34,16800.9L9062.05,16800.9L9062.05,16737.4L9083.34,16737.4L9083.34,16716.2L9147.2,16716.2L9147.2,16695L9062.05,16695L9062.05,16652.7L9168.49,16652.7L9168.49,16673.9L9189.78,16673.9L9189.78,16822.1L9083.34,16822.1ZM9147.2,16779.8L9147.2,16758.6L9104.62,16758.6L9104.62,16779.8L9147.2,16779.8ZM9211.07,16822.1L9211.07,16652.7L9253.64,16652.7L9253.64,16673.9L9274.93,16673.9L9274.93,16652.7L9317.51,16652.7L9317.51,16695L9274.93,16695L9274.93,16716.2L9253.64,16716.2L9253.64,16822.1L9211.07,16822.1ZM9360.09,16822.1L9360.09,16800.9L9338.8,16800.9L9338.8,16610.3L9381.38,16610.3L9381.38,16652.7L9423.95,16652.7L9423.95,16695L9381.38,16695L9381.38,16779.8L9423.95,16779.8L9423.95,16822.1L9360.09,16822.1Z" style="fill:url(#_Linear5);"/>
            </g>
        </g>
        <g transform="matrix(1,0,0,1,8168.76,13616.2)">
            <g transform="matrix(1.37784,0,0,1.37784,-634.711,-1778.81)">
                <g transform="matrix(200,0,0,200,1776.08,3625.65)">
                </g>
                <text x="1476.08px" y="3625.65px" style="font-family:'Born2bSportyFS', 'Born2bSporty FS';font-size:200px;fill:rgb(242,178,62);stroke:rgb(255,150,77);stroke-width:0.6px;">with</text>
            </g>
        </g>
    </g>
    <defs>
        <linearGradient id="_Linear1" x1="0" y1="0" x2="1" y2="0" gradientUnits="userSpaceOnUse" gradientTransform="matrix(439.46,-836.561,594.959,312.542,855.645,1167.38)"><stop offset="0" style="stop-color:rgb(70,67,148);stop-opacity:1"/><stop offset="0.46" style="stop-color:rgb(187,48,48);stop-opacity:1"/><stop offset="1" style="stop-color:rgb(255,207,65);stop-opacity:1"/></linearGradient>
        <linearGradient id="_Linear2" x1="0" y1="0" x2="1" y2="0" gradientUnits="userSpaceOnUse" gradientTransform="matrix(439.46,-836.561,594.959,312.542,855.645,1167.38)"><stop offset="0" style="stop-color:rgb(70,67,148);stop-opacity:1"/><stop offset="0.46" style="stop-color:rgb(187,48,48);stop-opacity:1"/><stop offset="1" style="stop-color:rgb(255,207,65);stop-opacity:1"/></linearGradient>
        <linearGradient id="_Linear3" x1="0" y1="0" x2="1" y2="0" gradientUnits="userSpaceOnUse" gradientTransform="matrix(404,-854.25,607.539,287.323,8539.75,17173.2)"><stop offset="0" style="stop-color:rgb(70,67,148);stop-opacity:1"/><stop offset="0.46" style="stop-color:rgb(187,48,48);stop-opacity:1"/><stop offset="1" style="stop-color:rgb(255,207,65);stop-opacity:1"/></linearGradient>
        <linearGradient id="_Linear4" x1="0" y1="0" x2="1" y2="0" gradientUnits="userSpaceOnUse" gradientTransform="matrix(404,-854.25,607.539,287.323,8539.75,17173.2)"><stop offset="0" style="stop-color:rgb(70,67,148);stop-opacity:1"/><stop offset="0.46" style="stop-color:rgb(187,48,48);stop-opacity:1"/><stop offset="1" style="stop-color:rgb(255,207,65);stop-opacity:1"/></linearGradient>
        <linearGradient id="_Linear5" x1="0" y1="0" x2="1" y2="0" gradientUnits="userSpaceOnUse" gradientTransform="matrix(404,-854.25,607.539,287.323,8539.75,17173.2)"><stop offset="0" style="stop-color:rgb(70,67,148);stop-opacity:1"/><stop offset="0.46" style="stop-color:rgb(187,48,48);stop-opacity:1"/><stop offset="1" style="stop-color:rgb(255,207,65);stop-opacity:1"/></linearGradient>
    </defs>
</svg>
